<svg xmlns="http://www.w3.org/2000/svg" width="171" height="171"><path d="M169.12 85.713c0 46.284-37.522 83.805-83.806 83.805S1.51 131.998 1.51 85.713c0-46.284 37.52-83.805 83.804-83.805s83.805 37.52 83.805 83.805z" fill-rule="evenodd" fill="#fff"/><path d="M138.644 100.95c0-29.454-23.877-53.33-53.33-53.33-29.454 0-53.33 23.876-53.33 53.33H47.22c0-21.04 17.055-38.094 38.093-38.094 21.038 0 38.093 17.055 38.093 38.094" fill-opacity=".098"/><path d="M118.074 96.38c0 15.988-12.962 28.95-28.95 28.95-15.99 0-28.952-12.962-28.952-28.95 0-15.99 12.962-28.952 28.95-28.952 15.99 0 28.952 12.962 28.952 28.95z" fill-rule="evenodd" fill-opacity=".098"/><path d="M116.55 85.712c0 17.25-13.985 31.236-31.236 31.236-17.25 0-31.236-13.985-31.236-31.236 0-17.25 13.985-31.236 31.236-31.236 17.25 0 31.236 13.985 31.236 31.236z" fill-rule="evenodd" fill="url(#a)"/><defs><linearGradient id="a" gradientUnits="userSpaceOnUse" x1="85.277" y1="54.545" x2="85.277" y2="116.947"><stop offset="0" stop-color="#81b4e0"/><stop offset="1" stop-color="#0c5a94"/></linearGradient></defs><path d="M161.5 47.62C140.525 5.42 89.312-11.79 47.11 9.185a85.332 85.332 0 0 0-32.65 28.53L48.746 97.14C42.43 77.074 53.582 55.686 73.65 49.373c3.53-1.11 7.203-1.7 10.902-1.752" fill="url(#b)"/><defs><linearGradient id="b" gradientUnits="userSpaceOnUse" x1="87.981" y1=".384" x2="87.981" y2="69.714"><stop offset="0" stop-color="#f06b59"/><stop offset="1" stop-color="#df2227"/></linearGradient></defs><path d="M14.46 37.716c-26.24 39.144-15.78 92.148 23.364 118.39a85.336 85.336 0 0 0 40.633 14.174l35.808-60.948c-13.39 16.228-37.397 18.53-53.625 5.14a38.09 38.09 0 0 1-11.895-17.33" fill="url(#c)"/><defs><linearGradient id="c" gradientUnits="userSpaceOnUse" x1="20.762" y1="146.366" x2="55.807" y2="88.465"><stop offset="0" stop-color="#388b41"/><stop offset="1" stop-color="#4cb749"/></linearGradient></defs><path d="M78.457 170.28c46.99 3.552 87.965-31.662 91.518-78.653A85.33 85.33 0 0 0 161.5 47.62H84.55c21.037.097 38.014 17.23 37.917 38.268a38.113 38.113 0 0 1-8.206 23.444" fill="url(#d)"/><defs><linearGradient id="d" gradientUnits="userSpaceOnUse" x1="138.163" y1="152.524" x2="100.832" y2="62.625"><stop offset="0" stop-color="#e4b022"/><stop offset=".3" stop-color="#fcd209"/></linearGradient></defs><path d="M14.46 37.716L48.746 97.14a38.09 38.09 0 0 1 1.523-25.903L15.98 35.43" fill="url(#e)"/><defs><linearGradient id="e" gradientUnits="userSpaceOnUse" x1="32.364" y1="94.856" x2="32.364" y2="33.908"><stop offset="0" stop-opacity=".149"/><stop offset=".3" stop-opacity=".059"/><stop offset="1" stop-opacity=".027"/></linearGradient></defs><path d="M78.457 170.28l35.808-60.948a38.1 38.1 0 0 1-22.094 12.95L76.94 170.28" fill="url(#f)"/><defs><linearGradient id="f" gradientUnits="userSpaceOnUse" x1="116.491" y1="114.538" x2="74.589" y2="157.201"><stop offset="0" stop-opacity=".149"/><stop offset=".3" stop-opacity=".059"/><stop offset="1" stop-opacity=".027"/></linearGradient></defs><path d="M161.5 47.62H84.552a38.09 38.09 0 0 1 29.712 14.475l48.76-12.19" fill="url(#g)"/><defs><linearGradient id="g" gradientUnits="userSpaceOnUse" x1="115.884" y1="126.812" x2="121.979" y2="66.628"><stop offset="0" stop-opacity=".149"/><stop offset=".3" stop-opacity=".059"/><stop offset="1" stop-opacity=".027"/></linearGradient></defs></svg>